<?xml version="1.0" encoding="UTF-8" standalone="no"?>
<!-- Created with Inkscape (http://www.inkscape.org/) -->

<svg
   xmlns:dc="http://purl.org/dc/elements/1.1/"
   xmlns:cc="http://creativecommons.org/ns#"
   xmlns:rdf="http://www.w3.org/1999/02/22-rdf-syntax-ns#"
   xmlns:svg="http://www.w3.org/2000/svg"
   xmlns="http://www.w3.org/2000/svg"
   xmlns:sodipodi="http://sodipodi.sourceforge.net/DTD/sodipodi-0.dtd"
   xmlns:inkscape="http://www.inkscape.org/namespaces/inkscape"
   width="184.94153mm"
   height="36.688889mm"
   viewBox="0 0 655.30463 130"
   id="svg2"
   version="1.1"
   inkscape:version="0.91 r"
   sodipodi:docname="blog.svg">
  <defs
     id="defs4" />
  <sodipodi:namedview
     id="base"
     pagecolor="#ffffff"
     bordercolor="#666666"
     borderopacity="1.0"
     inkscape:pageopacity="0.0"
     inkscape:pageshadow="2"
     inkscape:zoom="0.7"
     inkscape:cx="244.60642"
     inkscape:cy="11.042659"
     inkscape:document-units="px"
     inkscape:current-layer="layer1"
     showgrid="false"
     fit-margin-top="0"
     fit-margin-left="0"
     fit-margin-right="0"
     fit-margin-bottom="0"
     inkscape:window-width="1600"
     inkscape:window-height="848"
     inkscape:window-x="0"
     inkscape:window-y="0"
     inkscape:window-maximized="1" />
  <metadata
     id="metadata7">
    <rdf:RDF>
      <cc:Work
         rdf:about="">
        <dc:format>image/svg+xml</dc:format>
        <dc:type
           rdf:resource="http://purl.org/dc/dcmitype/StillImage" />
        <dc:title></dc:title>
      </cc:Work>
    </rdf:RDF>
  </metadata>
  <g
     inkscape:label="Layer 1"
     inkscape:groupmode="layer"
     id="layer1"
     transform="translate(-63,-150.93363)">
    <g
       style="font-style:normal;font-weight:normal;font-size:40px;line-height:125%;font-family:sans-serif;letter-spacing:0px;word-spacing:0px;fill:#000000;fill-opacity:1;stroke:none;stroke-width:1px;stroke-linecap:butt;stroke-linejoin:miter;stroke-opacity:1"
       id="text3336">
      <path
         d="m 108.93714,185.27649 8.88,0 11.44,52.56 11.52,-52.56 8.8,0 1.2,64.8 -7.28,0 -0.72,-47.04 -10.96,47.04 -5.12,0 -10.88,-47.04 -0.72,47.04 -7.36,0 1.2,-64.8 z"
         style="font-style:normal;font-variant:normal;font-weight:normal;font-stretch:normal;font-size:80px;font-family:Oswald;-inkscape-font-specification:Oswald"
         id="path3341" />
      <path
         d="m 160.54964,187.99649 8.56,0 0,8.96 -8.56,0 0,-8.96 z m 0,15.84 8.56,0 0,46.24 -8.56,0 0,-46.24 z"
         style="font-style:normal;font-variant:normal;font-weight:normal;font-stretch:normal;font-size:80px;font-family:Oswald;-inkscape-font-specification:Oswald"
         id="path3343" />
      <path
         d="m 178.27089,203.83649 8.56,0 0,4.56 q 5.52,-5.2 11.28,-5.2 3.76,0 5.36,2.72 1.6,2.72 1.6,6.72 l 0,37.44 -8.56,0 0,-34.96 q 0,-2.64 -0.8,-3.92 -0.8,-1.28 -2.88,-1.28 -2.56,0 -6,2.88 l 0,37.28 -8.56,0 0,-46.24 z"
         style="font-style:normal;font-variant:normal;font-weight:normal;font-stretch:normal;font-size:80px;font-family:Oswald;-inkscape-font-specification:Oswald"
         id="path3345" />
      <path
         d="m 213.98714,187.99649 8.56,0 0,8.96 -8.56,0 0,-8.96 z m 0,15.84 8.56,0 0,46.24 -8.56,0 0,-46.24 z"
         style="font-style:normal;font-variant:normal;font-weight:normal;font-stretch:normal;font-size:80px;font-family:Oswald;-inkscape-font-specification:Oswald"
         id="path3347" />
      <path
         d="m 231.70839,203.83649 7.92,0 0,4.4 q 2.32,-2.56 5.04,-3.84 2.8,-1.36 5.84,-1.36 5.92,0 7.52,5.84 4.8,-5.84 11.52,-5.84 3.6,0 5.84,2.64 2.32,2.64 2.32,8.08 l 0,36.32 -7.84,0 0,-35.76 q 0,-3.04 -0.96,-4.32 -0.96,-1.36 -2.8,-1.36 -1.84,0 -3.84,1.04 -1.92,0.96 -3.6,2.72 l 0,1.36 0,36.32 -7.84,0 0,-35.76 q 0,-3.04 -0.96,-4.32 -0.96,-1.36 -2.8,-1.36 -1.84,0 -3.76,1.04 -1.92,0.96 -3.68,2.72 l 0,37.68 -7.92,0 0,-46.24 z"
         style="font-style:normal;font-variant:normal;font-weight:normal;font-stretch:normal;font-size:80px;font-family:Oswald;-inkscape-font-specification:Oswald"
         id="path3349" />
      <path
         d="m 292.72339,250.71649 q -3.76,0 -5.36,-2.72 -1.6,-2.72 -1.6,-6.72 l 0,-37.44 8.56,0 0,34.88 q 0,2.64 0.8,4 0.8,1.28 2.88,1.28 2.56,0 6,-2.88 l 0,-37.28 8.56,0 0,46.24 -8.56,0 0,-4.56 q -5.52,5.2 -11.28,5.2 z"
         style="font-style:normal;font-variant:normal;font-weight:normal;font-stretch:normal;font-size:80px;font-family:Oswald;-inkscape-font-specification:Oswald"
         id="path3351" />
      <path
         d="m 321.23964,203.83649 7.92,0 0,4.4 q 2.32,-2.56 5.04,-3.84 2.8,-1.36 5.84,-1.36 5.92,0 7.52,5.84 4.8,-5.84 11.52,-5.84 3.6,0 5.84,2.64 2.32,2.64 2.32,8.08 l 0,36.32 -7.84,0 0,-35.76 q 0,-3.04 -0.96,-4.32 -0.96,-1.36 -2.8,-1.36 -1.84,0 -3.84,1.04 -1.92,0.96 -3.6,2.72 l 0,1.36 0,36.32 -7.84,0 0,-35.76 q 0,-3.04 -0.96,-4.32 -0.96,-1.36 -2.8,-1.36 -1.84,0 -3.76,1.04 -1.92,0.96 -3.68,2.72 l 0,37.68 -7.92,0 0,-46.24 z"
         style="font-style:normal;font-variant:normal;font-weight:normal;font-stretch:normal;font-size:80px;font-family:Oswald;-inkscape-font-specification:Oswald"
         id="path3353" />
      <path
         d="m 391.41589,185.27649 8.48,0 10.24,47.76 9.76,-47.76 8.24,0 -14.32,64.8 -7.92,0 -14.48,-64.8 z"
         style="font-style:normal;font-variant:normal;font-weight:normal;font-stretch:normal;font-size:80px;font-family:Oswald;-inkscape-font-specification:Oswald"
         id="path3355" />
      <path
         d="m 434.92464,187.99649 8.56,0 0,8.96 -8.56,0 0,-8.96 z m 0,15.84 8.56,0 0,46.24 -8.56,0 0,-46.24 z"
         style="font-style:normal;font-variant:normal;font-weight:normal;font-stretch:normal;font-size:80px;font-family:Oswald;-inkscape-font-specification:Oswald"
         id="path3357" />
      <path
         d="m 460.96589,250.71649 q -2.64,0 -4.8,-1.52 -2.08,-1.52 -3.28,-4 -1.2,-2.48 -1.2,-5.2 0,-5.44 2.32,-8.8 2.32,-3.44 5.84,-5.36 3.6,-2 10.08,-4.64 l 0,-3.28 q 0,-4.56 -0.96,-6.4 -0.88,-1.92 -3.68,-1.92 -4.88,0 -4.88,6.56 l 0,2.32 -8.48,-0.32 0.08,-1.68 q 0.4,-6.96 3.84,-10.08 3.52,-3.2 10,-3.2 6.64,0 9.6,3.68 3.04,3.6 3.04,10.96 l 0,21.12 q 0,5.2 0.8,11.12 l -7.84,0 q -0.88,-4.56 -1.12,-6.8 -0.96,3.12 -3.36,5.28 -2.32,2.16 -6,2.16 z m 3.36,-7.36 q 1.68,0 3.28,-1.28 1.6,-1.36 2.32,-2.56 l 0,-13.12 q -3.52,2.08 -5.28,3.28 -1.76,1.12 -3.12,3.12 -1.28,1.92 -1.28,4.56 0,2.88 1.04,4.48 1.04,1.52 3.04,1.52 z"
         style="font-style:normal;font-variant:normal;font-weight:normal;font-stretch:normal;font-size:80px;font-family:Oswald;-inkscape-font-specification:Oswald"
         id="path3359" />
      <path
         d="m 503.26839,250.71649 q -4.16,0 -7.84,-4 l 0,3.36 -8.56,0 0,-64.8 8.56,0 0,22.24 q 3.76,-4.32 8.72,-4.32 6.32,0 8.4,5.44 2.16,5.36 2.16,11.92 l 0,11.2 q 0,18.96 -11.44,18.96 z m -1.76,-6.72 q 2.96,0 3.76,-2.96 0.88,-3.04 0.88,-9.28 l 0,-11.2 q 0,-5.12 -0.96,-7.84 -0.96,-2.8 -4,-2.8 -2.8,0 -5.76,2.32 l 0,29.68 q 2.64,2.08 6.08,2.08 z"
         style="font-style:normal;font-variant:normal;font-weight:normal;font-stretch:normal;font-size:80px;font-family:Oswald;-inkscape-font-specification:Oswald"
         id="path3361" />
      <path
         d="m 523.28964,185.27649 8.56,0 0,64.8 -8.56,0 0,-64.8 z"
         style="font-style:normal;font-variant:normal;font-weight:normal;font-stretch:normal;font-size:80px;font-family:Oswald;-inkscape-font-specification:Oswald"
         id="path3363" />
      <path
         d="m 553.57089,250.71649 q -5.36,0 -8.32,-2 -2.96,-2.08 -4.16,-6.08 -1.2,-4 -1.2,-10.4 l 0,-10.56 q 0,-9.6 2.96,-14 3.04,-4.48 10.72,-4.48 5.6,0 8.4,2.32 2.88,2.32 3.76,6.56 0.96,4.16 0.96,11.28 l 0,3.76 -18.24,0 0,6.16 q 0,4.16 0.16,6.24 0.24,2.08 1.28,3.52 1.12,1.36 3.6,1.36 2.8,0 3.76,-1.84 1.04,-1.92 1.04,-5.76 l 0,-2.8 8.32,0 0,1.76 q 0,7.28 -3.12,11.12 -3.12,3.84 -9.92,3.84 z m 4.72,-28.24 0,-4.16 q 0,-4.72 -0.96,-6.72 -0.88,-2.08 -3.84,-2.08 -2.08,0 -3.2,0.96 -1.04,0.96 -1.44,3.2 -0.4,2.16 -0.4,6.32 l 0,2.48 9.84,0 z"
         style="font-style:normal;font-variant:normal;font-weight:normal;font-stretch:normal;font-size:80px;font-family:Oswald;-inkscape-font-specification:Oswald"
         id="path3365" />
      <path
         d="m 593.52214,185.27649 14.88,0 q 8.8,0 13.04,4 4.24,3.92 4.24,12.24 0,12.4 -9.28,13.68 5.76,1.36 8.4,5.44 2.64,4 2.64,10.96 0,8.72 -4.16,13.6 -4.08,4.88 -12.48,4.88 l -17.28,0 0,-64.8 z m 14.4,27.04 q 5.6,0 7.76,-2.4 2.16,-2.48 2.16,-8.4 0,-4.32 -1.36,-6.32 -1.28,-2.08 -3.92,-2.64 -2.64,-0.56 -7.84,-0.56 l -2.16,0 0,20.32 5.36,0 z m 0.72,31.28 q 4,0 6.16,-1.2 2.24,-1.28 3.12,-3.84 0.88,-2.56 0.88,-6.96 0,-6.24 -2.56,-9.28 -2.56,-3.12 -8.32,-3.12 l -5.36,0 0,24.4 6.08,0 z"
         style="font-style:normal;font-variant:normal;font-weight:normal;font-stretch:normal;font-size:80px;font-family:Oswald;-inkscape-font-specification:Oswald"
         id="path3367" />
      <path
         d="m 635.47714,185.27649 8.56,0 0,64.8 -8.56,0 0,-64.8 z"
         style="font-style:normal;font-variant:normal;font-weight:normal;font-stretch:normal;font-size:80px;font-family:Oswald;-inkscape-font-specification:Oswald"
         id="path3369" />
      <path
         d="m 665.59839,250.71649 q -7.36,0 -10.48,-4.32 -3.04,-4.4 -3.04,-12.72 l 0,-13.44 q 0,-8.32 3.04,-12.64 3.12,-4.4 10.48,-4.4 7.28,0 10.32,4.4 3.12,4.32 3.12,12.64 l 0,13.44 q 0,8.32 -3.12,12.72 -3.04,4.32 -10.32,4.32 z m 0,-6.32 q 2.32,0 3.36,-1.36 1.04,-1.36 1.28,-3.36 0.24,-2 0.24,-5.44 l 0,-14.48 q 0,-3.44 -0.24,-5.44 -0.24,-2.08 -1.28,-3.44 -1.04,-1.36 -3.36,-1.36 -2.32,0 -3.44,1.36 -1.04,1.36 -1.28,3.44 -0.24,2 -0.24,5.44 l 0,14.48 q 0,3.44 0.24,5.44 0.24,2 1.28,3.36 1.12,1.36 3.44,1.36 z"
         style="font-style:normal;font-variant:normal;font-weight:normal;font-stretch:normal;font-size:80px;font-family:Oswald;-inkscape-font-specification:Oswald"
         id="path3371" />
      <path
         d="m 701.26464,264.39649 q -8.24,0 -12.72,-1.36 -4.4,-1.36 -4.4,-5.84 0,-3.6 1.84,-6.24 1.92,-2.64 4.8,-4.16 -2.16,-0.64 -3.36,-2 -1.12,-1.36 -1.12,-2.96 0,-2.4 1.2,-4.16 1.2,-1.76 3.92,-4.24 -2.72,-2.08 -4.08,-5.2 -1.28,-3.2 -1.28,-8.56 0,-8.08 3.28,-12.24 3.36,-4.24 9.76,-4.24 3.68,0 6,1.28 2.32,1.28 3.52,3.84 0.56,-0.88 2.32,-2.32 1.84,-1.52 3.92,-2.48 l 1.28,-0.56 2.16,5.52 q -1.6,0.32 -4.48,1.36 -2.8,1.04 -3.36,1.6 0.56,1.44 0.96,4 0.48,2.56 0.48,4.48 0,7.6 -2.96,11.84 -2.96,4.16 -9.84,4.16 -2.16,0 -4.4,-0.56 -0.16,0.24 -0.88,1.36 -0.64,1.12 -0.64,2.16 0,0.88 0.88,1.44 0.96,0.48 2.96,0.64 1.2,0.16 3.6,0.4 2.48,0.16 3.6,0.24 10.72,0.96 10.72,11.28 0,6.16 -3.36,8.8 -3.28,2.72 -10.32,2.72 z m -2.16,-34.48 q 3.44,0 4.48,-2.4 1.04,-2.4 1.04,-7.84 0,-5.52 -1.04,-8 -1.04,-2.56 -4.4,-2.56 -3.36,0 -4.56,2.56 -1.12,2.48 -1.12,8 0,4.96 1.12,7.6 1.2,2.64 4.48,2.64 z m 2,27.76 q 3.76,0 5.52,-1.12 1.76,-1.04 1.76,-3.44 0,-2.24 -1.36,-3.28 -1.36,-1.12 -4.96,-1.44 l -7.28,-0.64 q -1.2,0.96 -2.32,2.56 -1.12,1.6 -1.12,3.44 0,1.44 0.72,2.24 0.72,0.88 2.8,1.28 2.16,0.4 6.24,0.4 z"
         style="font-style:normal;font-variant:normal;font-weight:normal;font-stretch:normal;font-size:80px;font-family:Oswald;-inkscape-font-specification:Oswald"
         id="path3373" />
    </g>
    <flowRoot
       xml:space="preserve"
       id="flowRoot3340"
       style="font-style:normal;font-weight:normal;font-size:40px;line-height:125%;font-family:sans-serif;letter-spacing:0px;word-spacing:0px;fill:#000000;fill-opacity:1;stroke:none;stroke-width:1px;stroke-linecap:butt;stroke-linejoin:miter;stroke-opacity:1"><flowRegion
         id="flowRegion3342"><rect
           id="rect3344"
           width="160"
           height="65.714287"
           x="51.42857"
           y="246.64792" /></flowRegion><flowPara
         id="flowPara3346" /></flowRoot>    <path
       style="fill:none;fill-rule:evenodd;stroke:#ffcd00;stroke-width:6;stroke-linecap:butt;stroke-linejoin:miter;stroke-miterlimit:4;stroke-dasharray:none;stroke-opacity:1"
       d="m 66,150.93363 0,130"
       id="path3348"
       inkscape:connector-curvature="0" />
  </g>
</svg>
